<?xml version="1.0" encoding="UTF-8" standalone="no"?>
<!-- Created with Inkscape (http://www.inkscape.org/) -->

<svg
   width="256"
   height="256"
   viewBox="0 0 67.733332 67.733335"
   version="1.1"
   id="svg1541"
   inkscape:version="1.1 (c68e22c387, 2021-05-23)"
   sodipodi:docname="shuffle_off.svg"
   inkscape:export-filename="C:\Users\bryan\OneDrive\Documents\iTunes.SMTC-Design\shuffle_off.png"
   inkscape:export-xdpi="18.000002"
   inkscape:export-ydpi="18.000002"
   xmlns:inkscape="http://www.inkscape.org/namespaces/inkscape"
   xmlns:sodipodi="http://sodipodi.sourceforge.net/DTD/sodipodi-0.dtd"
   xmlns="http://www.w3.org/2000/svg"
   xmlns:svg="http://www.w3.org/2000/svg">
  <sodipodi:namedview
     id="namedview1543"
     pagecolor="#ffffff"
     bordercolor="#666666"
     borderopacity="1.0"
     inkscape:pageshadow="2"
     inkscape:pageopacity="0.0"
     inkscape:pagecheckerboard="0"
     inkscape:document-units="mm"
     showgrid="false"
     units="px"
     inkscape:zoom="0.73406285"
     inkscape:cx="451.59621"
     inkscape:cy="318.09265"
     inkscape:window-width="1920"
     inkscape:window-height="1009"
     inkscape:window-x="-8"
     inkscape:window-y="-8"
     inkscape:window-maximized="1"
     inkscape:current-layer="layer1" />
  <defs
     id="defs1538" />
  <g
     inkscape:label="Layer 1"
     inkscape:groupmode="layer"
     id="layer1">
    <path
       d="m 58.985534,21.166671 q -4.200258,0.132292 -7.970569,1.190625 -3.737237,1.02526 -7.110673,2.877342 -3.340363,1.819009 -6.349997,4.365623 -3.009634,2.546613 -5.688539,5.622393 -1.124478,1.289843 -2.248957,2.51354 -1.124479,1.223697 -2.381249,2.381249 -5.556247,5.060154 -12.303119,7.87135 Q 8.1855598,50.79999 0.6118657,50.79999 v -4.233332 q 4.3325499,0 8.2020792,-0.992187 3.9026021,-1.025259 7.3752571,-2.844269 3.472654,-1.852082 6.548434,-4.431769 3.108852,-2.612759 5.886976,-5.787757 1.157552,-1.355989 2.315103,-2.612759 1.190624,-1.25677 2.51354,-2.447395 2.678905,-2.381249 5.622393,-4.299477 2.976561,-1.918228 6.184633,-3.274217 3.241144,-1.355989 6.680726,-2.083593 3.472654,-0.760676 7.0776,-0.859895 l -4.861716,-4.861716 2.976561,-2.9765612 9.988016,9.9549432 -9.988016,9.954943 -2.976561,-2.976561 z M 27.23555,27.64896 q -0.727604,0.793749 -1.422134,1.620572 -0.661458,0.793749 -1.422135,1.587499 -2.447395,-2.248957 -5.225518,-4.034894 -2.745051,-1.819009 -5.754685,-3.07578 Q 10.401444,22.489587 7.1933728,21.828129 3.9853015,21.166671 0.6118657,21.166671 V 16.93334 q 7.5736941,0 14.3205653,2.844269 6.746872,2.811197 12.303119,7.871351 z m 29.897902,11.079421 9.988016,9.954943 -9.988016,9.954943 -2.976561,-2.976561 4.861716,-4.861716 q -3.638019,-0.09922 -7.143746,-0.859896 -3.472655,-0.760676 -6.713799,-2.116665 -3.241144,-1.389062 -6.250778,-3.340363 -2.976561,-1.951301 -5.655466,-4.398696 0.727604,-0.79375 1.389062,-1.587499 0.694531,-0.826823 1.455207,-1.620572 2.381249,2.182811 5.027081,3.935675 2.645832,1.752864 5.523175,3.009634 2.910415,1.25677 5.986194,1.951301 3.108853,0.694531 6.349997,0.793749 l -4.828643,-4.861716 z"
       id="path11302" />
    <path
       id="rect10840"
       style="stroke-width:16.9756"
       transform="rotate(-136)"
       d="m -88.168063,-5.6314425 h 82.8913555 c 0.4917604,0 0.8876542,0.3958937 0.8876542,0.8876541 v 2.9871915 c 0,0.4917604 -0.3958938,0.88765416 -0.8876542,0.88765416 H -88.168063 c -0.491761,0 -0.887654,-0.39589376 -0.887654,-0.88765416 v -2.9871915 c 0,-0.4917604 0.395893,-0.8876541 0.887654,-0.8876541 z" />
  </g>
</svg>
